<?xml version="1.0" standalone="no"?>
<!DOCTYPE svg PUBLIC "-//W3C//DTD SVG 20010904//EN"
 "http://www.w3.org/TR/2001/REC-SVG-20010904/DTD/svg10.dtd">
<svg version="1.0" xmlns="http://www.w3.org/2000/svg"
 width="16px" height="16px" viewBox="0 0 512.000000 512.000000"
 preserveAspectRatio="xMidYMid meet">

<g transform="translate(0.000000,512.000000) scale(0.100000,-0.100000)"
fill="#000000" stroke="none">
<path d="M1810 5071 c-509 -169 -902 -442 -1265 -878 -61 -74 -198 -291 -259
-413 -140 -274 -229 -565 -267 -870 -20 -156 -17 -508 5 -655 84 -578 326
-1066 729 -1474 405 -409 910 -662 1492 -747 144 -21 499 -24 645 -5 749 95
1402 486 1826 1091 113 161 218 359 289 542 46 119 115 352 115 390 0 42 -36
106 -73 128 -80 49 -141 36 -260 -54 -326 -249 -663 -378 -1063 -406 -156 -12
-231 -9 -404 16 -754 109 -1373 659 -1576 1402 -84 309 -86 670 -4 986 67 260
148 425 345 704 53 75 60 128 23 194 -52 91 -131 105 -298 49z"/>
</g>
</svg>
